<mxfile host="Electron" agent="Mozilla/5.0 (X11; Linux x86_64) AppleWebKit/537.36 (KHTML, like Gecko) draw.io/26.0.4 Chrome/128.0.6613.186 Electron/32.2.5 Safari/537.36" version="26.0.4">
  <diagram name="Page-1" id="LAhyuVBFtGSq0LW3X13D">
    <mxGraphModel dx="1114" dy="1198" grid="1" gridSize="10" guides="1" tooltips="1" connect="1" arrows="1" fold="1" page="1" pageScale="1" pageWidth="850" pageHeight="1100" math="0" shadow="0">
      <root>
        <mxCell id="0" />
        <mxCell id="1" parent="0" />
        <mxCell id="D7Cb6maOz1SA8A_B8MLz-1" value="VPC" style="points=[[0,0],[0.25,0],[0.5,0],[0.75,0],[1,0],[1,0.25],[1,0.5],[1,0.75],[1,1],[0.75,1],[0.5,1],[0.25,1],[0,1],[0,0.75],[0,0.5],[0,0.25]];outlineConnect=0;gradientColor=none;html=1;whiteSpace=wrap;fontSize=12;fontStyle=0;container=1;pointerEvents=0;collapsible=0;recursiveResize=0;shape=mxgraph.aws4.group;grIcon=mxgraph.aws4.group_vpc2;strokeColor=#8C4FFF;fillColor=none;verticalAlign=top;align=left;spacingLeft=30;fontColor=#AAB7B8;dashed=0;" vertex="1" parent="1">
          <mxGeometry x="245" y="540" width="360" height="290" as="geometry" />
        </mxCell>
        <mxCell id="D7Cb6maOz1SA8A_B8MLz-5" value="Egress-only&lt;div&gt;Internet Gateway&lt;/div&gt;" style="sketch=0;outlineConnect=0;fontColor=#232F3E;gradientColor=none;fillColor=#8C4FFF;strokeColor=none;dashed=0;verticalLabelPosition=bottom;verticalAlign=top;align=center;html=1;fontSize=12;fontStyle=0;aspect=fixed;pointerEvents=1;shape=mxgraph.aws4.internet_gateway;" vertex="1" parent="D7Cb6maOz1SA8A_B8MLz-1">
          <mxGeometry x="216" y="-40" width="78" height="78" as="geometry" />
        </mxCell>
        <mxCell id="D7Cb6maOz1SA8A_B8MLz-3" value="Private subnet" style="points=[[0,0],[0.25,0],[0.5,0],[0.75,0],[1,0],[1,0.25],[1,0.5],[1,0.75],[1,1],[0.75,1],[0.5,1],[0.25,1],[0,1],[0,0.75],[0,0.5],[0,0.25]];outlineConnect=0;gradientColor=none;html=1;whiteSpace=wrap;fontSize=12;fontStyle=0;container=1;pointerEvents=0;collapsible=0;recursiveResize=0;shape=mxgraph.aws4.group;grIcon=mxgraph.aws4.group_security_group;grStroke=0;strokeColor=#00A4A6;fillColor=#E6F6F7;verticalAlign=top;align=left;spacingLeft=30;fontColor=#147EBA;dashed=0;" vertex="1" parent="D7Cb6maOz1SA8A_B8MLz-1">
          <mxGeometry x="190" y="160" width="130" height="120" as="geometry" />
        </mxCell>
        <mxCell id="D7Cb6maOz1SA8A_B8MLz-8" value="&lt;b&gt;IPv6:&lt;/b&gt; 2001:db8::e1c3" style="sketch=0;outlineConnect=0;fontColor=#232F3E;gradientColor=none;fillColor=#ED7100;strokeColor=none;dashed=0;verticalLabelPosition=bottom;verticalAlign=top;align=center;html=1;fontSize=12;fontStyle=0;aspect=fixed;pointerEvents=1;shape=mxgraph.aws4.instance2;" vertex="1" parent="D7Cb6maOz1SA8A_B8MLz-3">
          <mxGeometry x="41" y="36" width="48" height="48" as="geometry" />
        </mxCell>
        <mxCell id="D7Cb6maOz1SA8A_B8MLz-2" value="Public subnet" style="points=[[0,0],[0.25,0],[0.5,0],[0.75,0],[1,0],[1,0.25],[1,0.5],[1,0.75],[1,1],[0.75,1],[0.5,1],[0.25,1],[0,1],[0,0.75],[0,0.5],[0,0.25]];outlineConnect=0;gradientColor=none;html=1;whiteSpace=wrap;fontSize=12;fontStyle=0;container=1;pointerEvents=0;collapsible=0;recursiveResize=0;shape=mxgraph.aws4.group;grIcon=mxgraph.aws4.group_security_group;grStroke=0;strokeColor=#7AA116;fillColor=#F2F6E8;verticalAlign=top;align=left;spacingLeft=30;fontColor=#248814;dashed=0;" vertex="1" parent="D7Cb6maOz1SA8A_B8MLz-1">
          <mxGeometry x="40" y="160" width="130" height="120" as="geometry" />
        </mxCell>
        <mxCell id="D7Cb6maOz1SA8A_B8MLz-7" value="&lt;b&gt;IPv6:&lt;/b&gt; 2001:db8::b1c2" style="sketch=0;outlineConnect=0;fontColor=#232F3E;gradientColor=none;fillColor=#ED7100;strokeColor=none;dashed=0;verticalLabelPosition=bottom;verticalAlign=top;align=center;html=1;fontSize=12;fontStyle=0;aspect=fixed;pointerEvents=1;shape=mxgraph.aws4.instance2;" vertex="1" parent="D7Cb6maOz1SA8A_B8MLz-2">
          <mxGeometry x="41" y="36" width="48" height="48" as="geometry" />
        </mxCell>
        <mxCell id="D7Cb6maOz1SA8A_B8MLz-11" style="edgeStyle=orthogonalEdgeStyle;rounded=0;orthogonalLoop=1;jettySize=auto;html=1;fillColor=#dae8fc;strokeColor=#0000FF;strokeWidth=2;" edge="1" parent="D7Cb6maOz1SA8A_B8MLz-1" source="D7Cb6maOz1SA8A_B8MLz-8" target="D7Cb6maOz1SA8A_B8MLz-5">
          <mxGeometry relative="1" as="geometry">
            <Array as="points">
              <mxPoint x="265" y="110" />
              <mxPoint x="265" y="110" />
            </Array>
          </mxGeometry>
        </mxCell>
        <mxCell id="D7Cb6maOz1SA8A_B8MLz-9" style="edgeStyle=orthogonalEdgeStyle;rounded=0;orthogonalLoop=1;jettySize=auto;html=1;fillColor=#fff2cc;strokeColor=#FF8800;strokeWidth=2;" edge="1" parent="D7Cb6maOz1SA8A_B8MLz-1" source="D7Cb6maOz1SA8A_B8MLz-4" target="D7Cb6maOz1SA8A_B8MLz-7">
          <mxGeometry relative="1" as="geometry">
            <Array as="points">
              <mxPoint x="95" y="110" />
              <mxPoint x="95" y="110" />
            </Array>
          </mxGeometry>
        </mxCell>
        <mxCell id="D7Cb6maOz1SA8A_B8MLz-4" value="Internet&lt;div&gt;Gateway&lt;/div&gt;" style="sketch=0;outlineConnect=0;fontColor=#232F3E;gradientColor=none;fillColor=#8C4FFF;strokeColor=none;dashed=0;verticalLabelPosition=bottom;verticalAlign=top;align=center;html=1;fontSize=12;fontStyle=0;aspect=fixed;pointerEvents=1;shape=mxgraph.aws4.internet_gateway;" vertex="1" parent="D7Cb6maOz1SA8A_B8MLz-1">
          <mxGeometry x="66" y="-40" width="78" height="78" as="geometry" />
        </mxCell>
        <mxCell id="D7Cb6maOz1SA8A_B8MLz-10" style="edgeStyle=orthogonalEdgeStyle;rounded=0;orthogonalLoop=1;jettySize=auto;html=1;fillColor=#dae8fc;strokeColor=#0000FF;strokeWidth=2;" edge="1" parent="D7Cb6maOz1SA8A_B8MLz-1" source="D7Cb6maOz1SA8A_B8MLz-7" target="D7Cb6maOz1SA8A_B8MLz-4">
          <mxGeometry relative="1" as="geometry">
            <Array as="points">
              <mxPoint x="115" y="120" />
              <mxPoint x="115" y="120" />
            </Array>
          </mxGeometry>
        </mxCell>
        <mxCell id="D7Cb6maOz1SA8A_B8MLz-17" value="can&#39;t initiate&lt;div&gt;connection&lt;/div&gt;&lt;div&gt;from Internet&lt;/div&gt;" style="edgeStyle=orthogonalEdgeStyle;rounded=0;orthogonalLoop=1;jettySize=auto;html=1;fillColor=#fff2cc;strokeColor=#FF8800;strokeWidth=2;entryX=0.5;entryY=0;entryDx=0;entryDy=0;entryPerimeter=0;endArrow=none;endFill=0;" edge="1" parent="1" source="D7Cb6maOz1SA8A_B8MLz-6" target="D7Cb6maOz1SA8A_B8MLz-21">
          <mxGeometry x="0.1356" y="-10" relative="1" as="geometry">
            <Array as="points">
              <mxPoint x="485" y="309" />
              <mxPoint x="485" y="430" />
            </Array>
            <mxPoint as="offset" />
          </mxGeometry>
        </mxCell>
        <mxCell id="D7Cb6maOz1SA8A_B8MLz-19" style="edgeStyle=orthogonalEdgeStyle;rounded=0;orthogonalLoop=1;jettySize=auto;html=1;fillColor=#fff2cc;strokeColor=#FF8800;strokeWidth=2;" edge="1" parent="1" source="D7Cb6maOz1SA8A_B8MLz-6" target="D7Cb6maOz1SA8A_B8MLz-4">
          <mxGeometry relative="1" as="geometry">
            <Array as="points">
              <mxPoint x="365" y="309" />
            </Array>
          </mxGeometry>
        </mxCell>
        <mxCell id="D7Cb6maOz1SA8A_B8MLz-6" value="Internet" style="sketch=0;outlineConnect=0;fontColor=#232F3E;gradientColor=none;fillColor=#232F3D;strokeColor=none;dashed=0;verticalLabelPosition=top;verticalAlign=bottom;align=center;html=1;fontSize=12;fontStyle=0;aspect=fixed;pointerEvents=1;shape=mxgraph.aws4.internet_alt22;labelPosition=center;" vertex="1" parent="1">
          <mxGeometry x="386" y="270" width="78" height="78" as="geometry" />
        </mxCell>
        <mxCell id="D7Cb6maOz1SA8A_B8MLz-15" value="initiate connections&lt;div&gt;from both sides&lt;/div&gt;" style="edgeStyle=orthogonalEdgeStyle;rounded=0;orthogonalLoop=1;jettySize=auto;html=1;strokeWidth=2;strokeColor=#0000FF;" edge="1" parent="1" source="D7Cb6maOz1SA8A_B8MLz-4" target="D7Cb6maOz1SA8A_B8MLz-6">
          <mxGeometry x="-0.0038" y="-10" relative="1" as="geometry">
            <Array as="points">
              <mxPoint x="335" y="290" />
            </Array>
            <mxPoint as="offset" />
          </mxGeometry>
        </mxCell>
        <mxCell id="D7Cb6maOz1SA8A_B8MLz-16" style="edgeStyle=orthogonalEdgeStyle;rounded=0;orthogonalLoop=1;jettySize=auto;html=1;strokeWidth=2;strokeColor=#0000FF;" edge="1" parent="1" source="D7Cb6maOz1SA8A_B8MLz-5" target="D7Cb6maOz1SA8A_B8MLz-6">
          <mxGeometry relative="1" as="geometry">
            <Array as="points">
              <mxPoint x="515" y="290" />
            </Array>
          </mxGeometry>
        </mxCell>
        <mxCell id="D7Cb6maOz1SA8A_B8MLz-23" style="edgeStyle=orthogonalEdgeStyle;rounded=0;orthogonalLoop=1;jettySize=auto;html=1;strokeWidth=2;strokeColor=#FF8800;" edge="1" parent="1" source="D7Cb6maOz1SA8A_B8MLz-21" target="D7Cb6maOz1SA8A_B8MLz-5">
          <mxGeometry relative="1" as="geometry">
            <Array as="points">
              <mxPoint x="485" y="500" />
              <mxPoint x="485" y="500" />
            </Array>
          </mxGeometry>
        </mxCell>
        <mxCell id="D7Cb6maOz1SA8A_B8MLz-21" value="" style="points=[[0.145,0.145,0],[0.5,0,0],[0.855,0.145,0],[1,0.5,0],[0.855,0.855,0],[0.5,1,0],[0.145,0.855,0],[0,0.5,0]];shape=mxgraph.bpmn.event;html=1;verticalLabelPosition=bottom;labelBackgroundColor=#ffffff;verticalAlign=top;align=center;perimeter=ellipsePerimeter;outlineConnect=0;aspect=fixed;outline=end;symbol=cancel;strokeColor=#FF1616;" vertex="1" parent="1">
          <mxGeometry x="475" y="450" width="20" height="20" as="geometry" />
        </mxCell>
      </root>
    </mxGraphModel>
  </diagram>
</mxfile>
